<svg width="304" height="72" viewBox="0 0 304 72" fill="none" xmlns="http://www.w3.org/2000/svg">
<path d="M101.352 31.0018L103.518 24.8699H111.987L114.199 31.0018H118.048L109.76 8.82983H105.821L97.5333 31.0018H101.352ZM111.033 21.7593H104.579L106.578 16.0043C107.104 14.5337 107.503 13.1794 107.776 11.9414C107.877 12.3444 108.061 12.9789 108.329 13.844L108.415 14.1247C108.642 14.8485 108.822 15.3898 108.957 15.7477L111.033 21.7593ZM124.799 31.0018V22.7407H127.102C129.899 22.7407 132.056 22.1262 133.571 20.8982C135.086 19.6692 135.843 17.9019 135.843 15.5963C135.843 13.401 135.154 11.7399 133.775 10.6122C132.396 9.48443 130.323 8.92106 127.556 8.92106H121.178V31.0008L124.799 31.0018ZM126.722 19.7043H124.799V11.9414H127.314C128.96 11.9414 130.172 12.2532 130.95 12.8777C131.727 13.5022 132.117 14.4485 132.117 15.7176C132.117 17.0869 131.682 18.0934 130.814 18.7379C129.945 19.3825 128.58 19.7043 126.722 19.7043ZM144.094 31.0018V22.7407H146.398C149.195 22.7407 151.352 22.1262 152.867 20.8982C154.382 19.6692 155.14 17.9019 155.14 15.5963C155.14 13.401 154.45 11.7399 153.071 10.6122C151.693 9.48443 149.62 8.92106 146.852 8.92106H140.474V31.0008L144.094 31.0018ZM146.019 19.7043H144.095V11.9414H146.61C148.257 11.9414 149.468 12.2532 150.245 12.8777C151.024 13.5022 151.413 14.4485 151.413 15.7176C151.413 17.0869 150.979 18.0934 150.109 18.7379C149.24 19.3825 147.877 19.7043 146.019 19.7043ZM175.005 31.0018L178.672 17.8919C178.823 17.3887 179.013 16.6238 179.24 15.5963C179.467 14.5698 179.632 13.7338 179.733 13.0892C179.784 13.5122 179.93 14.2651 180.172 15.3477C180.414 16.4303 180.615 17.2573 180.778 17.8317L184.535 31.0018H188.474L194.247 8.92106H190.581L187.429 21.7583C186.853 23.9837 186.489 25.8162 186.338 27.2567C185.944 24.8709 185.57 23.0775 185.217 21.8796L181.521 8.92106H177.93L174.325 21.8194C174.142 22.474 173.94 23.3291 173.718 24.3867C173.497 25.4443 173.33 26.4006 173.218 27.2567C173.006 25.6758 172.653 23.8534 172.157 21.7894L168.992 8.92106H165.296L168.205 19.9459L171.068 31.0028H175.006L175.005 31.0018ZM204.103 31.3045C206.609 31.3045 208.563 30.5387 209.967 29.0089C211.371 27.4782 212.072 25.348 212.072 22.6194C212.072 19.982 211.366 17.8849 209.952 16.3291C208.537 14.7733 206.619 13.9954 204.195 13.9954C201.659 13.9954 199.696 14.7553 198.301 16.276C196.907 17.7967 196.21 19.9108 196.21 22.6194C196.21 24.3616 196.534 25.8924 197.18 27.2106C197.827 28.5298 198.751 29.5422 199.952 30.248C201.155 30.9517 202.539 31.3045 204.103 31.3045ZM204.164 28.4045C201.306 28.4045 199.877 26.4758 199.877 22.6204C199.877 20.7769 200.213 19.3625 200.884 18.3751C201.556 17.3887 202.639 16.8955 204.135 16.8955C206.983 16.8955 208.407 18.8031 208.407 22.6194C208.407 26.4758 206.993 28.4035 204.165 28.4035L204.164 28.4045ZM219.931 31.0018V22.2725C219.931 20.7919 220.372 19.589 221.256 18.6628C222.14 17.7365 223.293 17.2734 224.718 17.2734C225.263 17.2734 225.789 17.3335 226.293 17.4538L226.642 14.1458C226.178 14.0455 225.586 13.9954 224.869 13.9954C223.839 13.9954 222.878 14.2871 221.983 14.8715C221.089 15.455 220.365 16.2459 219.809 17.2423H219.628L219.158 14.2971H216.37V31.0018H219.931ZM235.349 31.3045C236.014 31.3045 236.658 31.2464 237.28 31.1301C237.9 31.0148 238.408 30.8715 238.803 30.7001V28.0265C237.934 28.2982 237.066 28.4345 236.197 28.4345C235.5 28.4345 234.937 28.231 234.508 27.8231C234.078 27.4151 233.863 26.7835 233.863 25.9274V16.9857H238.637V14.2971H233.863V10.5821H231.667L230.454 14.1167L228 15.4149V16.9857H230.288V25.9876C230.288 29.5322 231.976 31.3045 235.349 31.3045ZM249.675 31.3045C250.817 31.3045 251.832 31.2183 252.72 31.0479C253.609 30.8765 254.487 30.5848 255.356 30.1718V27.2868C254.377 27.7198 253.46 28.0286 252.607 28.216C251.753 28.4015 250.832 28.4947 249.842 28.4947C248.336 28.4947 247.17 28.0596 246.341 27.1885C245.514 26.3174 245.075 25.0714 245.024 23.4494H256.189V21.5317C256.189 19.186 255.548 17.3436 254.266 16.0043C252.983 14.665 251.235 13.9954 249.023 13.9954C246.639 13.9954 244.766 14.7753 243.403 16.3361C242.039 17.8969 241.358 20.0421 241.358 22.7708C241.358 25.4292 242.093 27.5153 243.562 29.031C245.032 30.5467 247.069 31.3045 249.675 31.3045ZM252.69 20.8832H245.085C245.216 19.5128 245.622 18.4713 246.303 17.7556C246.986 17.0418 247.892 16.6829 249.023 16.6829C250.155 16.6829 251.043 17.0388 251.69 17.7485C252.336 18.4583 252.67 19.5028 252.69 20.8832ZM264.002 31.0018V22.6805C264.002 20.5955 264.35 19.1109 265.047 18.2247C265.744 17.3385 266.845 16.8955 268.35 16.8955C269.481 16.8955 270.307 17.2122 270.827 17.8478C271.347 18.4813 271.607 19.4427 271.607 20.7318V31.0008H275.182V20.1123C275.182 16.0344 273.173 13.9954 269.153 13.9954C268.022 13.9954 266.992 14.2119 266.062 14.645C265.133 15.078 264.416 15.6925 263.911 16.4875H263.73L263.229 14.2971H260.442V31.0018H264.002ZM99.0972 59.8721L100.734 55.6588H106.061L107.714 59.8721H109.315L104.088 46.5697H102.788L97.5333 59.8711H99.0962L99.0972 59.8721ZM105.579 54.2724H101.278L102.842 50.1664C103.091 49.4717 103.281 48.8342 103.415 48.2548C103.627 49.0096 103.833 49.6482 104.034 50.1664L105.579 54.2724ZM117.467 59.8721V45.7717H115.957V59.8711L117.467 59.8721ZM124.75 60.0535C126.193 60.0535 127.323 59.5994 128.141 58.6902C128.96 57.781 129.369 56.5169 129.369 54.8969C129.369 53.3201 128.958 52.0701 128.137 51.1458C127.315 50.2216 126.209 49.7594 124.814 49.7594C123.372 49.7594 122.246 50.2105 121.433 51.1137C120.621 52.0169 120.215 53.279 120.215 54.8969C120.215 55.9425 120.403 56.8547 120.779 57.6336C121.154 58.4135 121.687 59.012 122.378 59.428C123.069 59.845 123.86 60.0535 124.75 60.0535ZM124.788 58.7944C123.8 58.7944 123.051 58.4616 122.542 57.797C122.032 57.1324 121.779 56.166 121.779 54.8969C121.779 53.6168 122.03 52.6525 122.533 52.0069C123.036 51.3603 123.782 51.0366 124.768 51.0366C125.768 51.0366 126.525 51.3643 127.037 52.0199C127.549 52.6755 127.805 53.6339 127.805 54.8969C127.805 56.172 127.549 57.1404 127.037 57.802C126.525 58.4636 125.775 58.7944 124.788 58.7944ZM132.881 48.2548C133.123 48.2548 133.332 48.1716 133.508 48.0052C133.684 47.8398 133.771 47.5872 133.771 47.2483C133.771 46.9105 133.684 46.6599 133.508 46.4965C133.332 46.3331 133.123 46.2519 132.881 46.2519C132.626 46.2519 132.414 46.3321 132.245 46.4925C132.075 46.6529 131.99 46.9035 131.99 47.2483C131.99 47.5872 132.075 47.8398 132.245 48.0052C132.414 48.1716 132.626 48.2548 132.881 48.2548ZM130.907 64.3309C132.72 64.3309 133.626 63.3525 133.626 61.3948V49.9399H132.117V61.505C132.117 62.0303 132.006 62.4213 131.784 62.6779C131.564 62.9355 131.218 63.0638 130.744 63.0638C130.338 63.0638 129.927 63.0037 129.509 62.8824V64.1054C129.866 64.2557 130.332 64.3319 130.908 64.3319L130.907 64.3309ZM139.346 60.0535C140.086 60.0535 140.703 59.9432 141.197 59.7227C141.691 59.5022 142.186 59.0811 142.684 58.4596H142.756L143.056 59.8731H144.174V53.0936C144.174 51.9337 143.888 51.0907 143.315 50.5654C142.742 50.0401 141.862 49.7775 140.675 49.7775C140.086 49.7775 139.5 49.8527 138.915 50.004C138.331 50.1544 137.792 50.3629 137.302 50.6286L137.765 51.7804C138.814 51.2721 139.753 51.0185 140.584 51.0185C141.323 51.0185 141.861 51.204 142.197 51.5759C142.534 51.9468 142.701 52.5232 142.701 53.3021V53.9186L141.011 53.9727C137.792 54.0699 136.184 55.1205 136.184 57.1264C136.184 58.0627 136.464 58.7854 137.025 59.2916C137.585 59.7999 138.358 60.0535 139.346 60.0535ZM139.647 58.8125C139.053 58.8125 138.591 58.6701 138.261 58.3864C137.93 58.1027 137.765 57.6887 137.765 57.1444C137.765 56.4497 138.031 55.9375 138.561 55.6087C139.092 55.2799 139.957 55.0934 141.156 55.0513L142.665 54.9882V55.8853C142.665 56.8096 142.397 57.5283 141.86 58.0416C141.324 58.5558 140.587 58.8125 139.647 58.8125ZM154.807 60.0535C156.056 60.0535 157.025 59.8029 157.716 59.3017C158.407 58.8004 158.753 58.0877 158.753 57.1625C158.753 56.5039 158.544 55.9575 158.129 55.5225C157.715 55.0874 156.916 54.6554 155.735 54.2263C154.874 53.9065 154.292 53.6619 153.99 53.4925C153.686 53.3231 153.466 53.1457 153.33 52.9582C153.194 52.7708 153.126 52.5442 153.126 52.2786C153.126 51.8856 153.307 51.5769 153.671 51.3543C154.034 51.1308 154.574 51.0185 155.289 51.0185C156.101 51.0185 157.007 51.224 158.008 51.635L158.543 50.412C157.519 49.977 156.471 49.7594 155.398 49.7594C154.246 49.7594 153.341 49.993 152.679 50.4611C152.02 50.9293 151.689 51.5688 151.689 52.3778C151.689 52.8309 151.785 53.2199 151.975 53.5467C152.167 53.8734 152.458 54.1652 152.849 54.4218C153.239 54.6784 153.898 54.9791 154.825 55.324C155.801 55.6979 156.457 56.0227 156.793 56.2974C157.129 56.572 157.298 56.9028 157.298 57.2898C157.298 57.803 157.086 58.1849 156.661 58.4366C156.238 58.6872 155.631 58.8125 154.844 58.8125C154.335 58.8125 153.806 58.7423 153.257 58.604C152.709 58.4646 152.195 58.2742 151.717 58.0326V59.428C152.456 59.845 153.486 60.0535 154.807 60.0535ZM165.519 60.0535C166.192 60.0535 166.766 60.0034 167.241 59.9041C167.717 59.8039 168.222 59.6395 168.755 59.4099V58.0687C167.707 58.5158 166.646 58.7403 165.572 58.7403C164.555 58.7403 163.766 58.4376 163.206 57.8331C162.645 57.2296 162.35 56.3445 162.32 55.1786H169.182V54.2263C169.182 52.885 168.819 51.8054 168.091 50.9874C167.364 50.1684 166.376 49.7594 165.128 49.7594C163.795 49.7594 162.733 50.2306 161.942 51.1729C161.151 52.1152 160.756 53.3873 160.756 54.9882C160.756 56.577 161.182 57.8181 162.033 58.7122C162.885 59.6064 164.047 60.0535 165.519 60.0535ZM167.563 53.9547H162.355C162.441 53.0364 162.721 52.3177 163.196 51.7984C163.672 51.2781 164.31 51.0185 165.109 51.0185C165.898 51.0185 166.504 51.2711 166.928 51.7753C167.352 52.2796 167.563 53.0063 167.563 53.9547ZM173.367 59.8721V54.6614C173.367 53.3752 173.586 52.449 174.026 51.8846C174.466 51.3192 175.157 51.0366 176.103 51.0366C176.824 51.0366 177.355 51.235 177.694 51.63C178.033 52.026 178.203 52.6194 178.203 53.4113V59.8721H179.712V54.3276C179.712 53.2098 179.936 52.3828 180.385 51.8445C180.833 51.3062 181.527 51.0376 182.466 51.0376C183.181 51.0376 183.708 51.236 184.047 51.631C184.387 52.027 184.557 52.6204 184.557 53.4123V59.8731H186.066V53.3943C186.066 52.1252 185.786 51.202 185.225 50.6255C184.665 50.0481 183.821 49.7604 182.693 49.7604C181.972 49.7604 181.329 49.9108 180.767 50.2135C180.203 50.5143 179.773 50.9253 179.476 51.4466H179.403C178.924 50.3218 177.906 49.7604 176.349 49.7604C175.706 49.7604 175.126 49.8958 174.608 50.1674C174.09 50.4401 173.688 50.817 173.403 51.3002H173.331L173.085 49.9409H171.858V59.8731L173.367 59.8721ZM190.786 64.3309V60.244C190.786 59.7247 190.75 59.1744 190.678 58.5949H190.786C191.151 59.0902 191.6 59.457 192.136 59.6956C192.673 59.9342 193.266 60.0535 193.914 60.0535C195.21 60.0535 196.224 59.6024 196.955 58.6992C197.685 57.796 198.05 56.5289 198.05 54.8969C198.05 53.273 197.691 52.0099 196.973 51.1097C196.255 50.2095 195.235 49.7594 193.914 49.7594C193.248 49.7594 192.656 49.8797 192.142 50.1213C191.626 50.3629 191.175 50.7559 190.786 51.2992H190.714L190.506 49.9399H189.278V64.3319L190.786 64.3309ZM193.732 58.7944C192.702 58.7944 191.954 58.4937 191.486 57.8922C191.02 57.2908 190.786 56.2933 190.786 54.8969V54.5621C190.8 53.3351 191.032 52.441 191.487 51.8796C191.941 51.3182 192.678 51.0376 193.696 51.0376C194.581 51.0376 195.267 51.3684 195.755 52.03C196.243 52.6916 196.486 53.6409 196.486 54.8789C196.486 56.0999 196.243 57.0572 195.755 57.7519C195.267 58.4466 194.593 58.7944 193.732 58.7944ZM202.299 59.8721V54.5441C202.299 53.5717 202.585 52.7587 203.158 52.1061C203.73 51.4546 204.42 51.1278 205.225 51.1278C205.54 51.1278 205.904 51.1729 206.316 51.2631L206.525 49.8677C206.173 49.7955 205.777 49.7594 205.334 49.7594C204.71 49.7594 204.138 49.9339 203.616 50.2847C203.095 50.6356 202.649 51.1338 202.281 51.7804H202.207L202.035 49.9399H200.789V59.8721H202.299ZM212.702 60.0535C213.373 60.0535 213.948 60.0034 214.424 59.9041C214.899 59.8039 215.403 59.6395 215.937 59.4099V58.0687C214.889 58.5158 213.828 58.7403 212.755 58.7403C211.738 58.7403 210.948 58.4376 210.388 57.8331C209.826 57.2296 209.532 56.3445 209.501 55.1786H216.364V54.2263C216.364 52.885 216.002 51.8054 215.273 50.9874C214.546 50.1684 213.558 49.7594 212.31 49.7594C210.976 49.7594 209.915 50.2306 209.124 51.1729C208.333 52.1152 207.937 53.3873 207.937 54.9882C207.937 56.577 208.363 57.8181 209.215 58.7122C210.066 59.6064 211.23 60.0535 212.702 60.0535ZM214.746 53.9547H209.537C209.622 53.0364 209.903 52.3177 210.378 51.7984C210.855 51.2781 211.492 51.0185 212.292 51.0185C213.08 51.0185 213.685 51.2711 214.11 51.7753C214.533 52.2796 214.746 53.0063 214.746 53.9547ZM225.489 64.3309V60.244C225.489 59.7247 225.453 59.1744 225.379 58.5949H225.489C225.851 59.0902 226.302 59.457 226.838 59.6956C227.375 59.9342 227.966 60.0535 228.616 60.0535C229.913 60.0535 230.926 59.6024 231.657 58.6992C232.386 57.796 232.751 56.5289 232.751 54.8969C232.751 53.273 232.392 52.0099 231.674 51.1097C230.956 50.2095 229.937 49.7594 228.616 49.7594C227.949 49.7594 227.358 49.8797 226.843 50.1213C226.328 50.3629 225.877 50.7559 225.489 51.2992H225.415L225.207 49.9399H223.979V64.3319L225.489 64.3309ZM228.433 58.7944C227.403 58.7944 226.655 58.4937 226.188 57.8922C225.721 57.2908 225.489 56.2933 225.489 54.8969V54.5621C225.501 53.3351 225.734 52.441 226.189 51.8796C226.643 51.3182 227.379 51.0376 228.397 51.0376C229.282 51.0376 229.968 51.3684 230.456 52.03C230.944 52.6916 231.188 53.6409 231.188 54.8789C231.188 56.0999 230.944 57.0572 230.456 57.7519C229.968 58.4466 229.294 58.7944 228.433 58.7944ZM237 59.8721V54.5441C237 53.5717 237.286 52.7587 237.859 52.1061C238.431 51.4546 239.121 51.1278 239.927 51.1278C240.242 51.1278 240.605 51.1729 241.017 51.2631L241.227 49.8677C240.875 49.7955 240.478 49.7594 240.036 49.7594C239.412 49.7594 238.839 49.9339 238.318 50.2847C237.797 50.6356 237.352 51.1338 236.982 51.7804H236.909L236.736 49.9399H235.491V59.8721H237ZM247.403 60.0535C248.076 60.0535 248.65 60.0034 249.125 59.9041C249.601 59.8039 250.105 59.6395 250.638 59.4099V58.0687C249.59 58.5158 248.53 58.7403 247.456 58.7403C246.439 58.7403 245.65 58.4376 245.09 57.8331C244.529 57.2296 244.234 56.3445 244.203 55.1786H251.065V54.2263C251.065 52.885 250.703 51.8054 249.975 50.9874C249.248 50.1684 248.26 49.7594 247.011 49.7594C245.679 49.7594 244.616 50.2306 243.826 51.1729C243.034 52.1152 242.64 53.3873 242.64 54.9882C242.64 56.577 243.065 57.8181 243.916 58.7122C244.767 59.6064 245.931 60.0535 247.403 60.0535ZM249.447 53.9547H244.239C244.324 53.0364 244.604 52.3177 245.08 51.7984C245.556 51.2781 246.193 51.0185 246.993 51.0185C247.781 51.0185 248.387 51.2711 248.812 51.7753C249.235 52.2796 249.447 53.0063 249.447 53.9547ZM256.223 60.0535C257.472 60.0535 258.441 59.8029 259.132 59.3017C259.823 58.8004 260.169 58.0877 260.169 57.1625C260.169 56.5039 259.96 55.9575 259.546 55.5225C259.131 55.0874 258.332 54.6554 257.151 54.2263C256.29 53.9065 255.708 53.6619 255.405 53.4925C255.103 53.3231 254.882 53.1457 254.746 52.9582C254.61 52.7708 254.542 52.5442 254.542 52.2786C254.542 51.8856 254.723 51.5769 255.086 51.3543C255.451 51.1308 255.99 51.0185 256.705 51.0185C257.517 51.0185 258.423 51.224 259.424 51.635L259.959 50.412C258.935 49.977 257.887 49.7594 256.815 49.7594C255.662 49.7594 254.756 49.993 254.096 50.4611C253.436 50.9293 253.106 51.5688 253.106 52.3778C253.106 52.8309 253.2 53.2199 253.392 53.5467C253.583 53.8734 253.873 54.1652 254.265 54.4218C254.655 54.6784 255.314 54.9791 256.242 55.324C257.217 55.6979 257.873 56.0227 258.209 56.2974C258.546 56.572 258.714 56.9028 258.714 57.2898C258.714 57.803 258.502 58.1849 258.077 58.4366C257.653 58.6872 257.047 58.8125 256.26 58.8125C255.75 58.8125 255.222 58.7423 254.674 58.604C254.125 58.4646 253.611 58.2742 253.133 58.0326V59.428C253.872 59.845 254.902 60.0535 256.223 60.0535ZM266.935 60.0535C267.608 60.0535 268.182 60.0034 268.657 59.9041C269.133 59.8039 269.637 59.6395 270.171 59.4099V58.0687C269.122 58.5158 268.062 58.7403 266.989 58.7403C265.971 58.7403 265.182 58.4376 264.622 57.8331C264.061 57.2296 263.766 56.3445 263.736 55.1786H270.598V54.2263C270.598 52.885 270.235 51.8054 269.507 50.9874C268.78 50.1684 267.792 49.7594 266.543 49.7594C265.21 49.7594 264.149 50.2306 263.358 51.1729C262.567 52.1152 262.172 53.3873 262.172 54.9882C262.172 56.577 262.597 57.8181 263.449 58.7122C264.3 59.6064 265.463 60.0535 266.935 60.0535ZM268.979 53.9547H263.771C263.857 53.0364 264.137 52.3177 264.612 51.7984C265.088 51.2781 265.726 51.0185 266.525 51.0185C267.314 51.0185 267.919 51.2711 268.344 51.7753C268.767 52.2796 268.979 53.0063 268.979 53.9547ZM274.783 59.8721V54.6614C274.783 53.3682 275.025 52.441 275.51 51.8796C275.994 51.3182 276.759 51.0376 277.801 51.0376C278.589 51.0376 279.168 51.236 279.537 51.635C279.907 52.034 280.091 52.6374 280.091 53.4474V59.8731H281.601V53.3933C281.601 52.1242 281.297 51.201 280.691 50.6245C280.085 50.0471 279.183 49.7594 277.982 49.7594C277.298 49.7594 276.676 49.8938 276.119 50.1624C275.561 50.4311 275.128 50.81 274.819 51.2992H274.747L274.501 49.9399H273.273V59.8721H274.783ZM287.804 60.0535C288.058 60.0535 288.345 60.0284 288.662 59.9763C288.98 59.9262 289.222 59.86 289.385 59.7818V58.631C289.24 58.6731 289.043 58.7142 288.794 58.7533C288.546 58.7934 288.288 58.8125 288.021 58.8125C287.525 58.8125 287.133 58.6521 286.849 58.3313C286.564 58.0115 286.421 57.5524 286.421 56.9539V51.1097H289.311V49.9399H286.421V47.6383H285.549L284.913 49.7594L283.486 50.384V51.1097H284.913V57.0181C284.913 59.042 285.877 60.0535 287.804 60.0535ZM295.688 60.0535C296.361 60.0535 296.935 60.0034 297.41 59.9041C297.886 59.8039 298.391 59.6395 298.924 59.4099V58.0687C297.876 58.5158 296.815 58.7403 295.742 58.7403C294.725 58.7403 293.935 58.4376 293.375 57.8331C292.814 57.2296 292.519 56.3445 292.489 55.1786H299.352V54.2263C299.352 52.885 298.988 51.8054 298.26 50.9874C297.533 50.1684 296.545 49.7594 295.297 49.7594C293.964 49.7594 292.902 50.2306 292.111 51.1729C291.32 52.1152 290.925 53.3873 290.925 54.9882C290.925 56.577 291.351 57.8181 292.202 58.7122C293.054 59.6064 294.216 60.0535 295.688 60.0535ZM297.732 53.9547H292.525C292.609 53.0364 292.889 52.3177 293.366 51.7984C293.841 51.2781 294.479 51.0185 295.279 51.0185C296.067 51.0185 296.673 51.2711 297.097 51.7753C297.521 52.2796 297.732 53.0063 297.732 53.9547ZM302.881 60.1357C303.227 60.1357 303.5 60.0294 303.7 59.8179C303.899 59.6074 304 59.3047 304 58.9117C304 58.5067 303.901 58.2 303.704 57.9925C303.508 57.784 303.233 57.6797 302.881 57.6797C302.536 57.6797 302.271 57.784 302.086 57.9925C301.901 58.201 301.809 58.5067 301.809 58.9117C301.809 59.3468 301.91 59.6595 302.114 59.85C302.316 60.0405 302.572 60.1357 302.881 60.1357Z" fill="white"/>
<path d="M56.1314 0H16.0685C7.19413 0 0 7.15354 0 15.9779V55.9225C0 64.7469 7.19413 71.9004 16.0685 71.9004H56.1314C65.0059 71.9004 72.2 64.7469 72.2 55.9225V15.9779C72.2 7.15354 65.0059 0 56.1314 0Z" fill="url(#paint0_linear_125_169)"/>
<path fill-rule="evenodd" clip-rule="evenodd" d="M50.8844 27.4827L45.1041 33.2627L39.8404 27.9992C37.8637 26.0226 34.6582 26.0226 32.6819 27.9993L32.6536 28.0292L27.4197 33.2627L21.6408 27.484C19.6645 25.5073 16.4591 25.5073 14.4829 27.484C12.5057 29.4614 12.5057 32.6668 14.4829 34.6427L27.4197 47.58L36.262 38.7384L45.1041 47.58L58.0428 34.6416C60.0202 32.665 60.0202 29.4599 58.043 27.4828C56.0664 25.5058 52.8607 25.5058 50.8844 27.4827Z" fill="white"/>
<defs>
<linearGradient id="paint0_linear_125_169" x1="3.24106" y1="11.6407" x2="35.8894" y2="72.0143" gradientUnits="userSpaceOnUse">
<stop stop-color="#FE382C"/>
<stop offset="1" stop-color="#E51B15"/>
</linearGradient>
</defs>
</svg>
